<?xml version="1.0" standalone="no"?>
<!DOCTYPE svg PUBLIC "-//W3C//DTD SVG 20010904//EN"
 "http://www.w3.org/TR/2001/REC-SVG-20010904/DTD/svg10.dtd">
<svg version="1.0" xmlns="http://www.w3.org/2000/svg"
 width="479.000000pt" height="486.000000pt" viewBox="0 0 479.000000 486.000000"
 preserveAspectRatio="xMidYMid meet">

<g transform="translate(0.000000,486.000000) scale(0.100000,-0.100000)"
fill="#000000" stroke="none">
<path d="M2593 4853 c-7 -2 -13 -11 -13 -19 0 -8 -6 -14 -14 -14 -14 0 -30
-51 -66 -203 -15 -66 -17 -111 -14 -310 2 -127 -1 -259 -6 -292 -8 -50 -7 -62
6 -75 14 -14 15 -9 12 43 -2 32 -1 60 3 63 5 3 6 11 3 19 -3 7 0 23 6 35 8 15
8 20 1 16 -14 -9 -14 -4 -1 29 5 14 6 24 2 21 -13 -8 -11 57 1 73 19 23 16 40
-5 36 -14 -3 -17 -1 -10 8 5 7 8 21 6 32 -2 11 -5 61 -5 110 -2 66 1 89 10 87
7 -1 10 2 6 8 -3 6 -11 7 -17 4 -7 -4 -7 0 0 12 5 11 7 25 4 33 -2 8 0 11 5 8
5 -3 9 9 9 26 0 55 46 204 67 216 16 10 23 8 44 -15 16 -17 21 -30 14 -32 -7
-2 -3 -10 10 -21 19 -15 29 -60 32 -148 1 -13 4 -23 8 -23 4 0 9 -10 12 -22 3
-13 13 -43 22 -68 19 -51 24 -69 31 -123 3 -21 9 -50 15 -64 5 -15 12 -45 15
-69 3 -23 7 -51 9 -63 2 -12 -1 -21 -8 -21 -8 0 -9 -2 -1 -8 6 -4 16 -17 23
-29 9 -18 9 -23 -1 -23 -10 0 -10 -2 0 -9 9 -5 15 -34 17 -79 2 -39 6 -76 10
-81 3 -6 9 -32 12 -58 3 -27 9 -52 14 -58 5 -5 9 -37 9 -71 0 -58 -2 -63 -20
-59 -12 2 -18 0 -15 -6 4 -5 11 -7 16 -4 10 7 2 -46 -13 -87 -6 -15 -7 -35 -4
-44 3 -9 -3 -35 -15 -58 -35 -66 -36 -70 -32 -83 3 -7 9 -13 15 -13 6 0 8 7 4
15 -3 8 0 15 5 15 6 0 9 9 6 20 -3 11 -2 20 2 20 13 0 44 77 37 89 -4 6 0 37
8 68 39 147 45 206 29 264 -9 30 -19 81 -23 114 -9 82 -30 182 -46 228 -8 20
-14 46 -14 56 0 10 -7 24 -15 31 -8 7 -15 25 -15 41 0 38 -27 143 -50 194 -20
43 -30 98 -30 157 1 46 -13 75 -51 107 -16 13 -29 32 -29 42 0 19 -5 21 -27
12z"/>
<path d="M2513 4375 c0 -8 4 -12 9 -9 5 3 6 10 3 15 -9 13 -12 11 -12 -6z"/>
<path d="M2752 4207 c10 -8 14 -18 10 -22 -4 -5 -1 -5 6 -1 17 10 15 14 -10
26 -21 10 -21 10 -6 -3z"/>
<path d="M2679 4103 c-13 -16 -12 -17 4 -4 16 13 21 21 13 21 -2 0 -10 -8 -17
-17z"/>
<path d="M2805 4020 c3 -5 8 -10 11 -10 2 0 4 5 4 10 0 6 -5 10 -11 10 -5 0
-7 -4 -4 -10z"/>
<path d="M2470 3899 c0 -11 -1 -108 -3 -214 -1 -107 -1 -192 2 -190 2 3 5 16
5 29 1 13 8 31 15 40 7 9 9 16 5 16 -10 0 -10 280 -1 318 4 15 1 22 -9 22 -8
0 -14 -9 -14 -21z"/>
<path d="M2808 3733 c7 -3 16 -2 19 1 4 3 -2 6 -13 5 -11 0 -14 -3 -6 -6z"/>
<path d="M2800 3689 c0 -5 5 -7 10 -4 6 3 10 8 10 11 0 2 -4 4 -10 4 -5 0 -10
-5 -10 -11z"/>
<path d="M4372 3655 c-7 -8 -24 -15 -38 -15 -19 0 -25 -4 -20 -15 7 -19 -5
-19 -50 0 -37 15 -74 7 -74 -16 0 -6 -7 -8 -16 -5 -8 3 -22 -1 -30 -9 -8 -8
-21 -12 -28 -9 -9 3 -17 -3 -21 -15 -3 -12 -15 -21 -26 -21 -10 0 -19 -4 -19
-8 0 -5 -13 -9 -29 -9 -16 0 -42 -8 -57 -18 -15 -9 -47 -19 -72 -21 -31 -3
-51 -11 -67 -28 -12 -13 -30 -26 -40 -27 -10 -2 -25 -18 -35 -35 -22 -42 -143
-144 -169 -144 -12 0 -21 -4 -21 -10 0 -5 -7 -10 -16 -10 -8 0 -12 -4 -9 -10
3 -6 -5 -10 -18 -10 -14 0 -52 -13 -85 -30 -34 -16 -70 -30 -81 -30 -12 0 -21
-4 -21 -10 0 -5 -7 -10 -15 -10 -9 0 -15 -9 -15 -22 0 -12 -3 -19 -6 -15 -4 3
-21 -5 -39 -18 -17 -14 -36 -25 -42 -25 -5 0 -16 -11 -23 -25 -7 -14 -23 -26
-34 -27 -35 -2 -41 -3 -54 -11 -7 -5 -10 -12 -7 -17 7 -11 -14 -25 -58 -40
-24 -7 -43 -22 -52 -40 -8 -15 -21 -30 -30 -34 -9 -3 -13 -10 -10 -16 3 -6 -2
-13 -12 -17 -10 -4 -22 -11 -28 -16 -10 -8 -54 -37 -85 -56 -8 -5 -27 -14 -42
-22 -16 -7 -28 -18 -28 -25 0 -13 -38 -30 -47 -20 -3 3 0 19 6 37 11 33 15 87
6 77 -3 -3 -8 -16 -10 -29 -3 -13 -14 -36 -25 -50 l-19 -27 26 -17 c21 -14 29
-15 49 -4 13 7 24 16 24 21 0 14 23 34 40 33 8 0 29 12 45 27 17 15 35 28 41
28 6 0 17 7 24 15 7 9 15 13 18 11 3 -3 18 6 34 19 16 14 35 25 41 25 14 0 57
44 57 57 0 5 12 16 28 24 15 8 32 20 37 27 11 14 37 30 95 59 19 9 46 27 60
39 14 13 38 30 55 38 28 15 31 14 58 -12 19 -18 26 -21 21 -9 -3 10 -15 22
-25 28 -11 5 -19 14 -19 19 0 13 61 51 71 45 4 -3 10 2 13 11 3 8 10 12 16 9
5 -3 10 -2 10 3 0 5 12 8 28 7 15 -1 36 3 47 10 21 13 85 11 94 -3 9 -13 51
-8 60 6 5 8 19 13 32 11 13 -1 32 1 41 5 9 4 22 5 27 1 7 -3 8 0 5 9 -7 19 27
34 68 31 15 -1 25 1 23 6 -6 9 35 35 48 31 5 -1 6 2 2 7 -3 6 12 19 35 31 22
11 40 26 40 32 0 7 7 3 16 -8 8 -10 13 -13 9 -6 -13 25 6 49 55 71 28 13 57
21 64 18 8 -3 22 1 33 8 21 17 37 19 28 5 -3 -6 1 -7 9 -4 9 3 16 9 16 13 0 3
18 7 41 9 23 1 48 9 56 17 21 21 28 19 29 -10 1 -14 -2 -25 -8 -25 -5 0 -7 -3
-5 -7 2 -5 -7 -18 -20 -30 -13 -12 -23 -19 -23 -16 0 4 -6 -2 -14 -12 -8 -11
-12 -24 -8 -29 3 -5 -2 -7 -11 -3 -12 4 -14 2 -10 -10 5 -12 3 -14 -8 -8 -8 4
-11 4 -6 0 8 -10 -21 -45 -37 -45 -6 0 -20 -13 -30 -29 -13 -19 -25 -27 -38
-23 -10 2 -15 8 -12 13 3 5 -2 9 -10 9 -8 0 -17 8 -19 18 -4 15 -5 15 -6 0 0
-9 3 -19 8 -22 14 -9 1 -46 -16 -46 -13 0 -13 3 -3 15 7 9 10 18 6 22 -3 3 -6
0 -6 -8 0 -12 -2 -11 -11 1 -8 12 -9 11 -7 -5 2 -11 -2 -19 -8 -18 -14 2 -14
-28 -1 -45 7 -9 4 -19 -12 -35 -11 -13 -21 -27 -21 -31 0 -4 -18 -25 -39 -46
-21 -21 -37 -41 -34 -43 2 -3 -9 -11 -26 -18 -16 -7 -27 -17 -25 -21 8 -13
-11 -9 -26 5 -12 10 -12 9 -3 -3 16 -21 -6 -65 -32 -65 -11 -1 -19 -6 -18 -12
3 -14 -54 -73 -123 -129 -27 -21 -50 -42 -52 -46 -2 -5 -10 -8 -18 -8 -8 0
-14 -4 -14 -9 0 -5 -7 -12 -16 -15 -12 -5 -15 -2 -10 11 5 16 4 16 -9 -1 -8
-10 -16 -22 -17 -25 -2 -3 -15 -16 -29 -29 -24 -21 -29 -22 -48 -10 -18 11
-23 11 -31 -2 -5 -8 -10 -11 -10 -6 0 5 -6 4 -12 -1 -7 -5 -25 -8 -40 -7 -15
2 -30 -1 -33 -7 -4 -5 -13 -5 -23 0 -9 5 -30 7 -46 5 -16 -2 -36 1 -45 5 -8 5
-25 4 -39 -2 -18 -8 -25 -8 -31 2 -7 10 -9 10 -14 -2 -3 -9 -16 -13 -31 -12
-14 2 -28 -1 -31 -5 -3 -5 -19 -15 -35 -24 -19 -9 -28 -10 -23 -3 4 6 -6 2
-21 -11 -16 -12 -39 -22 -52 -22 -12 0 -26 -4 -29 -10 -3 -5 -15 -10 -26 -10
-11 0 -27 -6 -35 -14 -8 -8 -23 -13 -34 -11 -11 2 -20 0 -20 -6 0 -5 -9 -9
-20 -9 -11 0 -20 -4 -20 -10 0 -5 6 -7 14 -4 10 4 12 -1 9 -19 -3 -17 0 -24
11 -24 8 0 13 3 11 7 -2 3 0 12 5 20 7 12 15 9 40 -15 17 -16 26 -32 20 -35
-6 -4 0 -20 15 -40 13 -18 22 -37 19 -41 -3 -5 0 -9 6 -9 8 0 8 -6 0 -20 -6
-11 -9 -20 -8 -21 2 0 13 -2 25 -3 16 -2 20 2 17 17 -2 10 -8 25 -14 31 -5 7
-6 17 -2 21 4 5 1 5 -5 1 -7 -4 -13 -2 -13 3 0 13 13 13 63 2 21 -5 37 -5 37
0 0 5 -11 9 -25 9 -14 0 -25 5 -25 11 0 6 -8 9 -19 6 -21 -5 -51 37 -51 71 0
12 -5 24 -10 27 -20 12 10 44 51 55 23 6 50 17 61 23 14 9 20 9 27 -1 10 -16
44 -4 37 14 -4 11 5 13 38 10 31 -3 55 1 80 15 38 20 81 25 91 10 3 -5 47 -8
98 -5 107 4 126 4 147 1 16 -2 62 30 131 91 20 17 42 32 48 32 6 0 12 6 12 13
1 6 2 19 3 27 0 8 10 16 21 18 24 5 56 32 50 42 -3 5 11 17 29 28 19 12 46 39
61 61 14 23 30 41 36 41 5 0 7 4 4 10 -4 6 1 7 11 3 12 -4 15 -3 10 5 -5 8 -2
10 8 6 11 -4 16 0 16 13 0 11 16 38 35 60 19 23 35 46 35 51 0 20 67 82 109
101 29 13 52 32 67 58 13 21 47 57 76 79 29 23 52 46 51 53 -2 6 1 11 7 11 5
0 43 35 84 77 67 70 73 79 61 96 -8 11 -11 25 -9 31 7 17 -32 50 -47 40 -17
-10 -59 -12 -59 -2 0 13 -24 8 -38 -7z m55 -141 c-16 -14 -30 -24 -33 -21 -9
8 8 36 24 40 35 9 36 6 9 -19z m-316 -298 c15 9 10 -2 -6 -16 -13 -10 -15 -9
-14 11 0 13 3 18 6 11 2 -6 9 -10 14 -6z"/>
<path d="M2459 3470 c-6 -35 -3 -180 3 -180 4 0 6 -12 3 -27 -2 -16 -7 -48 -9
-73 -3 -25 -12 -66 -21 -92 -9 -26 -15 -55 -12 -65 4 -14 5 -12 6 5 0 13 8 30
16 38 8 8 11 22 8 31 -4 9 -2 14 3 11 9 -6 11 3 14 92 1 30 6 63 11 72 6 11 6
18 0 18 -5 0 -8 12 -6 27 1 14 -1 38 -5 53 -4 15 -4 33 0 41 4 8 4 25 -1 39
-4 15 -8 19 -10 10z"/>
<path d="M17 3382 c-8 -9 -15 -32 -15 -50 -1 -25 5 -35 26 -47 40 -21 102 -82
102 -99 0 -9 5 -16 10 -16 6 0 18 -16 27 -35 9 -19 24 -35 32 -35 9 0 28 -15
42 -33 14 -18 45 -41 67 -52 23 -11 42 -23 42 -27 0 -5 8 -8 17 -8 9 0 27 -10
40 -22 13 -12 23 -17 23 -10 0 12 -60 58 -60 45 0 -4 -4 -3 -8 2 -4 6 -25 20
-47 32 -22 12 -39 27 -37 33 1 6 -2 9 -7 6 -11 -7 -53 33 -46 45 3 4 -4 5 -15
2 -13 -4 -20 0 -20 9 0 9 -13 32 -30 53 -16 21 -30 44 -30 51 0 8 -6 14 -14
14 -8 0 -23 11 -33 23 -10 13 -28 29 -41 36 -25 14 -29 46 -6 55 29 11 66 7
58 -6 -5 -8 0 -7 11 2 17 14 18 13 12 -2 -7 -20 17 -26 28 -7 4 6 14 7 24 4
30 -12 56 -15 176 -20 140 -6 170 -9 208 -24 15 -6 27 -6 27 -1 0 5 50 7 117
4 99 -4 119 -8 133 -24 13 -15 20 -16 28 -8 9 9 12 9 12 -1 0 -7 6 -11 14 -8
8 3 17 3 21 -1 4 -4 30 -7 58 -8 64 -1 78 -5 95 -24 12 -13 13 -13 8 2 -3 10
-1 20 4 23 6 4 10 1 10 -5 0 -6 5 -8 12 -4 18 12 138 13 138 3 0 -6 7 -6 18 0
21 11 71 8 100 -8 12 -6 22 -9 22 -6 0 3 9 1 20 -5 12 -6 18 -16 14 -23 -4 -7
1 -5 12 4 39 32 48 34 41 8 -5 -21 -5 -22 7 -7 7 10 16 15 19 11 4 -3 7 -1 7
6 0 7 5 9 10 6 6 -3 10 1 10 9 0 12 -7 14 -30 10 -22 -5 -30 -3 -30 7 0 17
-37 42 -50 34 -19 -12 -136 -13 -155 -1 -11 7 -48 11 -82 10 -35 -1 -63 3 -63
7 0 15 -37 10 -50 -6 -8 -10 -17 -12 -29 -6 -9 5 -42 12 -74 16 -53 7 -57 6
-51 -11 5 -16 4 -16 -5 -4 -7 11 -34 15 -103 17 -110 2 -201 11 -233 23 -17 6
-27 5 -35 -5 -7 -8 -16 -12 -21 -9 -5 3 -33 8 -61 10 -29 3 -58 10 -65 16 -9
7 -37 9 -76 5 -44 -4 -67 -2 -80 8 -10 7 -27 11 -37 8 -11 -3 -27 2 -36 11
-12 13 -19 14 -30 5 -9 -7 -18 -8 -26 -2 -21 15 -55 13 -71 -5z"/>
<path d="M2772 3348 c-13 -29 -21 -89 -10 -82 4 3 8 21 8 40 0 22 6 37 15 40
16 6 21 24 7 24 -5 0 -14 -10 -20 -22z"/>
<path d="M4107 3348 c9 -10 21 -18 27 -18 6 0 3 5 -7 11 -9 6 -15 14 -13 18 3
4 -1 8 -9 8 -13 0 -12 -4 2 -19z"/>
<path d="M4094 3332 c4 -7 3 -19 -4 -27 -8 -10 -8 -15 2 -21 7 -4 10 -4 6 1
-4 4 -3 14 4 22 8 11 8 17 -2 26 -10 9 -11 9 -6 -1z"/>
<path d="M4057 3275 c3 -8 9 -12 14 -9 12 7 11 11 -5 17 -10 4 -13 1 -9 -8z"/>
<path d="M4025 3270 c-4 -6 -11 -8 -16 -5 -5 3 -6 -1 -3 -9 8 -21 11 -20 24 4
11 20 6 29 -5 10z"/>
<path d="M1560 3249 c0 -6 -9 -8 -20 -4 -12 4 -20 2 -20 -5 0 -6 4 -9 9 -5 5
3 11 -1 13 -9 2 -10 8 -7 21 10 10 13 13 24 7 24 -5 0 -10 -5 -10 -11z"/>
<path d="M1613 3248 c15 -7 27 -16 27 -21 0 -4 4 -6 8 -3 5 3 26 -4 46 -15 21
-11 36 -15 34 -8 -2 6 -26 20 -53 30 -57 22 -104 34 -62 17z"/>
<path d="M2684 3241 c4 -5 0 -12 -6 -14 -10 -4 -10 -6 0 -6 6 -1 12 -6 12 -12
0 -5 -5 -7 -12 -3 -7 4 -8 3 -4 -4 4 -7 3 -12 -3 -12 -5 0 -8 -9 -6 -20 5 -28
14 -40 28 -39 9 0 8 2 -1 6 -6 2 -10 9 -6 14 3 5 -1 9 -8 9 -7 1 -2 7 12 14
14 8 28 12 32 10 4 -3 5 3 1 12 -4 11 -8 13 -11 6 -8 -24 -19 -11 -16 18 2 17
-1 30 -7 30 -6 0 -8 -4 -5 -9z"/>
<path d="M2753 3215 c0 -22 2 -30 4 -17 2 12 2 30 0 40 -3 9 -5 -1 -4 -23z"/>
<path d="M1750 3200 c-8 -5 -11 -10 -6 -10 5 0 3 -7 -4 -15 -7 -8 -9 -15 -4
-15 5 0 2 -5 -6 -10 -18 -12 -2 -12 25 0 18 8 18 9 2 9 -10 1 -15 6 -12 11 4
6 10 8 15 5 5 -3 12 -1 15 5 5 8 12 7 22 -2 9 -7 25 -13 36 -13 24 0 31 -29
11 -46 -8 -6 -14 -16 -14 -22 0 -6 7 -1 16 11 8 12 20 22 26 22 7 0 7 -5 -1
-14 -9 -11 -8 -15 4 -20 9 -3 13 -2 10 4 -3 6 -1 10 6 10 10 0 10 3 1 12 -9 9
-9 15 0 27 10 13 10 14 -2 4 -8 -7 -19 -13 -24 -13 -6 0 -3 7 7 15 21 15 51 9
40 -9 -5 -7 -2 -7 8 1 17 13 67 -8 143 -60 21 -15 52 -27 68 -27 16 0 38 -9
50 -20 11 -10 33 -22 49 -25 34 -8 101 -59 111 -85 4 -11 21 -22 42 -25 22 -5
36 -14 39 -26 3 -10 10 -19 17 -19 7 0 8 5 3 13 -4 6 -9 35 -9 62 -2 72 -3 75
-14 75 -6 0 -8 -21 -6 -50 4 -46 3 -49 -13 -40 -10 5 -21 7 -24 3 -4 -3 -14 8
-24 26 -10 17 -23 31 -29 31 -6 0 -19 9 -28 19 -10 10 -33 22 -51 25 -21 4
-36 14 -40 26 -5 15 -16 20 -43 20 -40 1 -78 18 -141 63 -45 32 -94 46 -163
47 -25 0 -48 4 -50 9 -5 14 -42 21 -58 11z"/>
<path d="M3853 3193 c0 -9 4 -10 14 -2 7 6 13 12 13 14 0 1 -6 2 -13 2 -8 0
-14 -6 -14 -14z"/>
<path d="M2635 3190 c-3 -5 -3 -10 2 -10 4 0 1 -5 -7 -10 -13 -8 -13 -10 2
-10 11 0 16 7 15 20 -1 23 -3 24 -12 10z"/>
<path d="M2725 3160 c3 -5 8 -10 11 -10 2 0 4 5 4 10 0 6 -5 10 -11 10 -5 0
-7 -4 -4 -10z"/>
<path d="M2758 3145 c-3 -14 -1 -25 3 -25 5 0 9 11 9 25 0 14 -2 25 -4 25 -2
0 -6 -11 -8 -25z"/>
<path d="M1306 3128 c3 -5 10 -6 15 -3 13 9 11 12 -6 12 -8 0 -12 -4 -9 -9z"/>
<path d="M1685 3130 c-3 -6 1 -7 9 -4 18 7 21 14 7 14 -6 0 -13 -4 -16 -10z"/>
<path d="M1920 3130 c-13 -9 -13 -10 0 -10 12 0 12 -2 2 -9 -11 -6 -10 -11 3
-25 15 -15 12 -20 -7 -17 -5 0 -7 -3 -5 -8 1 -5 -7 -17 -18 -25 -18 -15 -17
-15 15 -2 31 13 37 12 60 -4 26 -18 26 -18 27 8 2 24 1 24 -7 7 -10 -22 -10
-22 -16 19 -4 25 -3 27 9 17 12 -9 16 -8 21 5 4 11 2 15 -8 11 -7 -3 -19 0
-25 6 -7 7 -12 8 -11 2 5 -24 -1 -56 -9 -51 -5 3 -7 16 -3 28 3 15 2 19 -7 14
-8 -5 -10 0 -7 18 3 14 4 26 3 26 -1 0 -9 -5 -17 -10z"/>
<path d="M1146 3112 c-3 -5 1 -9 9 -9 8 0 12 4 9 9 -3 4 -7 8 -9 8 -2 0 -6 -4
-9 -8z"/>
<path d="M1746 3097 c5 -14 2 -16 -12 -11 -16 5 -16 4 -4 -5 20 -14 39 4 21
22 -10 10 -11 9 -5 -6z"/>
<path d="M1185 3091 c-3 -5 -2 -12 3 -15 5 -3 9 1 9 9 0 17 -3 19 -12 6z"/>
<path d="M2680 3070 c13 -24 17 -25 17 -5 0 8 -6 16 -14 19 -11 4 -11 1 -3
-14z"/>
<path d="M560 3060 c-6 -11 -8 -20 -6 -20 3 0 10 9 16 20 6 11 8 20 6 20 -3 0
-10 -9 -16 -20z"/>
<path d="M1860 3061 c-8 -16 -7 -19 8 -16 9 2 20 4 25 4 4 1 7 5 7 11 0 5 -7
6 -17 3 -11 -4 -14 -3 -9 5 4 7 5 12 2 12 -3 0 -10 -9 -16 -19z"/>
<path d="M1169 3043 c-13 -16 -12 -17 4 -4 9 7 17 15 17 17 0 8 -8 3 -21 -13z"/>
<path d="M2755 3040 c3 -5 8 -10 11 -10 2 0 4 5 4 10 0 6 -5 10 -11 10 -5 0
-7 -4 -4 -10z"/>
<path d="M1945 3020 c3 -6 1 -10 -6 -10 -7 0 -9 -3 -6 -6 3 -4 2 -15 -3 -25
-7 -12 -6 -20 2 -25 6 -4 8 -3 4 4 -3 6 1 18 10 26 8 9 12 16 7 16 -4 0 -2 4
5 9 11 7 10 9 -3 14 -9 4 -13 3 -10 -3z"/>
<path d="M2025 3011 c-6 -11 -5 -12 15 -15 6 0 14 -7 19 -14 6 -11 10 -10 15
4 4 10 4 15 0 11 -4 -4 -15 0 -25 9 -11 10 -19 12 -24 5z"/>
<path d="M2742 2964 c-16 -66 -23 -142 -13 -148 4 -3 9 20 10 52 1 31 6 72 12
90 6 18 9 37 7 43 -2 6 -9 -11 -16 -37z"/>
<path d="M1970 2989 c0 -5 5 -7 10 -4 6 3 10 -1 10 -10 0 -9 5 -13 10 -10 6 4
18 1 27 -7 12 -9 15 -9 9 0 -4 7 -2 12 6 12 8 0 6 5 -5 11 -9 5 -21 8 -26 4
-5 -3 -12 -1 -16 5 -8 13 -25 13 -25 -1z"/>
<path d="M1161 2974 c0 -11 3 -14 6 -6 3 7 2 16 -1 19 -3 4 -6 -2 -5 -13z"/>
<path d="M3660 2976 c0 -9 5 -16 10 -16 6 0 10 4 10 9 0 6 -4 13 -10 16 -5 3
-10 -1 -10 -9z"/>
<path d="M1913 2935 c0 -8 4 -12 9 -9 5 3 6 10 3 15 -9 13 -12 11 -12 -6z"/>
<path d="M441 2936 c56 -48 175 -116 203 -116 13 0 29 -6 35 -14 6 -7 32 -16
57 -20 43 -6 149 -54 185 -83 9 -8 66 -27 125 -43 117 -32 184 -59 184 -75 0
-9 26 -25 70 -43 13 -5 13 -3 1 11 -7 9 -18 14 -24 10 -6 -4 -8 0 -4 10 4 11
2 14 -7 11 -8 -3 -28 8 -46 25 -18 16 -36 29 -39 28 -6 -2 -81 19 -119 34 -13
5 -29 9 -37 9 -7 0 -26 5 -42 11 -15 6 -30 10 -33 10 -3 0 -15 10 -27 21 -13
12 -23 18 -23 14 0 -8 -58 22 -78 42 -7 6 -16 13 -20 13 -30 6 -60 10 -75 10
-10 0 -27 9 -38 20 -10 10 -30 19 -44 19 -29 0 -80 23 -110 50 -11 10 -30 21
-42 25 -13 3 -23 11 -23 16 0 5 -7 9 -17 9 -9 0 -14 -2 -12 -4z"/>
<path d="M3709 2935 c-1 -3 -2 -8 -3 -12 -1 -5 -5 -15 -10 -23 -7 -12 -6 -13
4 -3 13 12 23 43 14 43 -2 0 -5 -2 -5 -5z"/>
<path d="M2434 2801 c2 -28 0 -51 -4 -51 -17 0 -42 -87 -28 -96 6 -4 8 -2 4 4
-3 6 -1 14 5 17 5 4 8 13 5 21 -3 7 7 27 21 44 22 27 24 34 14 56 -6 14 -9 29
-6 34 3 5 1 11 -5 15 -6 4 -9 -12 -6 -44z"/>
<path d="M3693 2827 c0 -12 1 -16 4 -8 5 11 7 11 14 0 4 -7 10 -11 14 -8 3 3
-3 13 -13 22 -17 15 -18 15 -19 -6z"/>
<path d="M3640 2771 c0 -6 4 -13 10 -16 6 -3 7 1 4 9 -7 18 -14 21 -14 7z"/>
<path d="M1503 2628 c2 -7 -3 -19 -12 -26 -14 -11 -13 -12 6 -2 14 6 20 16 17
25 -7 18 -17 20 -11 3z"/>
<path d="M1543 2595 c0 -8 4 -12 9 -9 5 3 6 10 3 15 -9 13 -12 11 -12 -6z"/>
<path d="M2374 2554 c-4 -14 -2 -30 3 -35 7 -7 9 -1 5 17 -3 16 -1 25 5 21 5
-3 10 0 10 8 0 25 -16 17 -23 -11z"/>
<path d="M2459 2578 c-7 -25 -5 -36 6 -31 8 2 11 11 8 19 -5 12 -12 18 -14 12z"/>
<path d="M1555 2540 c3 -5 8 -10 11 -10 2 0 4 5 4 10 0 6 -5 10 -11 10 -5 0
-7 -4 -4 -10z"/>
<path d="M1356 2525 c11 -8 25 -15 32 -15 7 0 27 -7 45 -15 29 -15 30 -15 12
0 -11 9 -30 18 -42 22 -13 3 -23 8 -23 12 0 4 -10 7 -21 8 -21 2 -21 1 -3 -12z"/>
<path d="M2635 2520 c3 -5 8 -10 11 -10 2 0 4 5 4 10 0 6 -5 10 -11 10 -5 0
-7 -4 -4 -10z"/>
<path d="M1475 2500 c-10 -16 37 -38 114 -54 41 -9 77 -20 80 -25 4 -5 18 -12
33 -16 14 -4 34 -14 45 -23 10 -10 43 -26 73 -36 30 -11 75 -30 99 -43 24 -13
52 -23 62 -23 10 0 21 -4 24 -10 3 -5 16 -10 28 -10 12 0 35 -7 51 -15 15 -8
42 -15 60 -15 41 0 76 -10 76 -21 0 -5 -7 -9 -15 -9 -8 0 -15 -4 -15 -10 0 -5
-6 -10 -12 -10 -20 0 -148 -54 -148 -62 0 -13 19 -9 60 12 49 25 85 25 117 1
13 -11 31 -17 40 -14 12 5 14 3 8 -8 -8 -12 -6 -12 8 0 9 7 17 10 17 5 0 -5 5
-1 11 9 11 18 59 24 59 7 0 -6 8 -10 18 -8 17 3 18 -7 7 -62 -2 -8 -4 -19 -4
-24 -1 -5 -9 -2 -18 5 -16 12 -17 12 -7 -1 6 -8 12 -32 13 -54 1 -31 -1 -37
-14 -32 -9 3 -13 2 -10 -4 3 -5 -4 -9 -17 -9 -13 0 -36 -2 -53 -6 -16 -4 -35
-8 -42 -8 -7 0 -10 -4 -7 -9 3 -5 9 -6 13 -4 13 8 9 -28 -5 -49 -8 -11 -14
-16 -14 -12 0 19 -38 -34 -53 -74 -14 -36 -22 -45 -43 -47 -30 -2 -56 -20 -49
-32 6 -10 -36 -7 -53 4 -7 4 -11 4 -10 -1 2 -4 -2 -10 -7 -12 -6 -2 -16 -11
-23 -20 -8 -9 -11 -11 -8 -4 4 6 1 15 -5 19 -7 4 -9 3 -6 -3 8 -13 -12 -30
-36 -30 -12 0 -16 6 -12 15 5 12 3 13 -10 2 -13 -11 -16 -11 -13 1 2 8 8 17
13 21 6 5 5 8 -3 8 -7 0 -10 5 -7 10 4 6 10 8 14 6 4 -3 8 1 8 8 0 11 -5 11
-25 0 -21 -11 -29 -10 -48 3 -13 8 -24 14 -25 12 -7 -36 -7 -40 5 -30 18 15
28 1 13 -18 -10 -14 -10 -14 3 -4 13 10 18 8 29 -9 9 -15 9 -18 0 -13 -8 5
-10 4 -5 -3 4 -7 16 -12 27 -12 11 0 17 -4 14 -10 -10 -17 13 -11 80 19 36 17
73 27 85 24 13 -4 20 -1 20 10 0 16 20 27 48 27 17 0 52 50 52 75 0 7 16 25
35 39 19 15 35 35 35 45 0 25 18 38 66 45 l41 7 1 -86 c1 -59 6 -92 17 -108 8
-12 15 -31 15 -44 0 -12 4 -24 9 -27 5 -4 12 -41 16 -84 4 -42 12 -83 19 -91
8 -11 8 -13 0 -8 -16 9 -23 -35 -17 -103 9 -112 13 -197 12 -264 0 -41 3 -66
9 -62 5 3 12 -3 15 -14 3 -11 1 -20 -3 -20 -12 0 -10 -93 2 -107 6 -7 8 -13 4
-13 -3 0 -1 -11 4 -24 5 -15 5 -27 -2 -34 -6 -6 -5 -17 3 -31 11 -16 11 -27 2
-51 -7 -20 -8 -32 -1 -36 5 -3 7 -15 5 -26 -4 -14 0 -22 14 -25 22 -6 21 -3
23 -61 0 -23 7 -46 14 -51 7 -4 12 -29 12 -62 1 -30 1 -69 1 -86 0 -18 4 -33
9 -33 13 0 19 -53 8 -79 -15 -35 -11 -74 7 -84 9 -4 13 -12 10 -18 -4 -5 1 -9
10 -9 11 0 14 -6 9 -24 -7 -29 4 -69 17 -61 5 4 9 1 9 -4 0 -6 -4 -11 -10 -11
-19 0 -10 -32 10 -37 11 -3 18 -9 15 -13 -8 -13 6 -40 21 -40 8 0 14 3 14 8 1
4 3 24 6 44 5 33 3 37 -11 32 -13 -5 -16 -2 -14 17 2 13 0 30 -4 37 -5 6 -5
12 0 12 4 0 -2 7 -14 15 -14 10 -19 22 -16 35 3 11 0 20 -6 20 -5 0 -8 6 -5
14 3 8 1 17 -5 21 -8 4 -8 13 0 28 7 12 8 18 3 14 -10 -10 -34 92 -25 108 10
18 12 55 3 55 -5 0 -9 7 -9 15 0 12 6 10 26 -7 l26 -23 -19 23 c-11 12 -15 22
-10 23 5 0 -1 4 -13 9 -19 8 -21 13 -14 32 5 13 10 28 12 33 2 6 7 9 12 7 4
-1 2 7 -5 17 -7 11 -15 18 -19 15 -4 -2 -9 3 -13 11 -4 10 1 15 17 16 20 0 19
2 -5 11 -16 5 -28 16 -28 24 0 9 3 13 8 10 4 -2 7 20 7 49 0 29 -3 51 -7 49
-9 -6 -9 -5 -14 66 -6 87 -8 100 -14 100 -3 0 -6 9 -7 21 -1 13 3 19 11 16 7
-3 13 1 13 9 0 7 -4 11 -8 9 -12 -8 -40 75 -33 97 5 16 3 19 -7 13 -8 -5 -11
-5 -7 0 4 4 1 19 -7 34 -9 19 -10 32 -3 45 7 13 7 17 0 12 -6 -3 -13 -2 -17 4
-3 5 -1 10 6 10 7 0 10 3 6 6 -3 4 0 19 9 35 8 16 11 29 6 29 -8 0 -12 14 -12
45 1 41 -1 64 -6 109 -5 37 -3 47 6 41 9 -5 10 -3 2 11 -5 11 -8 27 -7 37 2 9
-1 17 -6 17 -6 0 -8 14 -5 30 2 17 0 30 -4 30 -5 0 -7 9 -5 20 2 11 0 18 -4
15 -5 -2 -11 4 -14 16 -4 15 -2 18 7 10 17 -14 29 -1 15 16 -9 9 -8 13 0 13 6
0 10 6 8 13 -1 6 5 11 13 9 11 -2 11 1 -2 11 -19 15 -25 32 -7 22 18 -12 5 29
-13 43 -16 12 -17 16 -3 43 13 24 14 36 4 72 -17 59 -19 108 -5 100 8 -5 8 -3
1 8 -6 8 -10 41 -9 74 1 33 -4 78 -11 100 -14 47 -12 110 4 129 9 11 8 14 -6
12 -15 -1 -19 -13 -23 -61 -5 -59 -5 -60 -35 -58 -47 4 -76 13 -70 22 3 5 -4
7 -15 4 -11 -3 -17 -10 -14 -15 4 -5 -9 -2 -27 8 -20 10 -54 17 -81 16 -27 0
-48 3 -48 8 0 10 -56 30 -64 23 -7 -8 -37 17 -31 26 2 4 -10 5 -27 3 -16 -3
-33 -1 -37 4 -7 10 -93 49 -131 60 -14 4 -35 15 -48 25 -13 10 -36 21 -52 24
-16 4 -28 11 -27 17 1 6 -9 12 -22 14 -13 3 -47 11 -75 18 -28 8 -64 17 -79
20 -15 4 -25 11 -22 16 3 6 4 10 1 10 -3 0 -7 -4 -11 -10z m798 -351 c-5 -5
-19 -5 -33 -2 -22 6 -22 7 -4 13 23 9 49 1 37 -11z"/>
<path d="M2490 2494 c0 -8 5 -12 10 -9 6 4 8 11 5 16 -9 14 -15 11 -15 -7z"/>
<path d="M1985 2471 c-3 -5 -2 -12 3 -15 5 -3 9 1 9 9 0 17 -3 19 -12 6z"/>
<path d="M2680 2461 c9 -18 9 -25 0 -31 -17 -10 1 -19 23 -11 19 7 24 26 7 26
-5 0 -16 9 -25 20 -16 19 -16 19 -5 -4z"/>
<path d="M2382 2439 c-1 -16 -1 -29 2 -29 7 0 13 50 7 55 -4 2 -8 -10 -9 -26z"/>
<path d="M3663 2411 c-29 -10 -56 -15 -60 -11 -15 13 -73 20 -73 9 0 -8 -15
-9 -47 -3 -67 11 -112 7 -153 -15 -27 -14 -54 -18 -121 -16 -47 1 -90 5 -96 8
-13 8 -43 -2 -43 -14 0 -5 3 -8 8 -8 20 3 32 -2 26 -12 -3 -6 6 -5 22 3 30 15
39 15 64 5 8 -3 29 -5 45 -5 17 1 45 -1 62 -4 18 -4 35 -2 39 3 3 5 10 6 16 3
5 -4 42 -8 82 -10 39 -2 85 -6 101 -7 17 -2 35 -1 40 2 17 10 123 13 240 8 41
-2 59 -7 57 -15 -2 -10 2 -10 17 0 11 6 18 20 16 30 -2 10 0 16 5 13 5 -3 7
-14 5 -23 -2 -10 6 -24 17 -31 11 -7 18 -9 15 -4 -3 5 19 9 49 9 30 0 54 -4
54 -10 0 -7 4 -6 10 0 12 12 70 6 70 -6 0 -5 17 -14 38 -20 20 -7 51 -21 68
-31 17 -10 39 -20 50 -22 10 -1 34 -10 53 -20 19 -9 49 -17 68 -17 18 0 33 -4
33 -8 0 -8 84 -41 115 -46 8 -1 21 -8 27 -14 7 -7 20 -12 30 -12 10 0 18 -4
18 -10 0 -5 6 -7 13 -4 7 2 19 -1 27 -8 9 -7 13 -12 11 -11 -2 2 -10 -5 -18
-15 -9 -10 -11 -11 -7 -2 6 12 5 13 -7 4 -18 -13 -57 -16 -64 -4 -3 5 -22 3
-43 -4 -31 -10 -94 -14 -112 -7 -15 7 -60 6 -60 -1 0 -4 6 -9 13 -9 18 -2 29
-4 57 -13 16 -4 43 -1 70 8 48 16 154 14 175 -4 7 -6 33 -13 59 -16 41 -4 46
-3 46 15 0 11 -5 23 -10 26 -6 4 -8 11 -4 16 13 22 -40 56 -100 63 -32 3 -66
11 -76 16 -10 6 -28 10 -39 10 -12 0 -21 6 -21 13 0 9 -3 8 -9 -2 -6 -9 -11
-10 -15 -2 -4 6 -20 11 -37 11 -19 0 -29 5 -29 15 0 8 -9 15 -21 15 -11 0 -29
5 -39 10 -11 6 -33 12 -51 14 -17 2 -35 9 -38 15 -4 6 -14 9 -22 6 -8 -3 -36
6 -62 20 -27 14 -55 25 -63 25 -8 0 -12 5 -9 10 3 6 1 10 -6 10 -21 0 -48 31
-42 47 5 13 2 13 -15 4 -17 -9 -28 -7 -56 8 -19 11 -37 17 -40 13 -10 -9 -145
-9 -139 1 7 12 -27 21 -39 9 -11 -11 -48 -4 -48 9 0 14 -40 10 -97 -10z"/>
<path d="M2547 2403 c3 -8 -2 -13 -13 -14 -11 0 -14 -3 -6 -6 6 -2 10 -10 6
-16 -3 -7 1 -4 10 7 9 11 20 15 28 10 10 -6 11 -5 1 8 -7 8 -11 17 -8 20 3 2
-1 5 -9 5 -8 0 -12 -6 -9 -14z"/>
<path d="M2384 2369 c0 -15 4 -25 9 -22 5 3 6 7 3 10 -3 3 -1 13 4 23 6 12 5
17 -4 17 -8 0 -13 -11 -12 -28z"/>
<path d="M2439 2358 c-6 -13 -8 -20 -4 -16 5 4 15 2 24 -5 14 -10 14 -10 4 4
-10 12 -10 18 -1 27 9 9 9 12 0 12 -6 0 -17 -10 -23 -22z"/>
<path d="M1971 2354 c0 -11 3 -14 6 -6 3 7 2 16 -1 19 -3 4 -6 -2 -5 -13z"/>
<path d="M2477 2295 c3 -8 9 -12 14 -9 12 7 11 11 -5 17 -10 4 -13 1 -9 -8z"/>
<path d="M3851 2274 c6 -7 16 -11 21 -8 11 7 3 17 -18 20 -12 2 -13 -1 -3 -12z"/>
<path d="M2656 2267 c3 -10 9 -15 12 -12 3 3 0 11 -7 18 -10 9 -11 8 -5 -6z"/>
<path d="M2766 2242 c-3 -5 1 -9 9 -9 8 0 12 4 9 9 -3 4 -7 8 -9 8 -2 0 -6 -4
-9 -8z"/>
<path d="M1990 2075 c-30 -32 -14 -32 24 0 18 16 24 25 14 25 -8 0 -25 -11
-38 -25z"/>
<path d="M4270 2079 l-25 -7 25 -1 c14 -1 36 -4 49 -8 16 -4 22 -2 18 4 -10
15 -38 20 -67 12z"/>
<path d="M4195 2064 c-22 -9 -56 -17 -76 -18 -19 -2 -45 -8 -57 -15 -25 -13
-35 -14 -27 -2 3 5 0 13 -6 17 -8 4 -9 3 -5 -4 10 -16 -36 -16 -54 1 -12 10
-12 9 -1 -5 14 -19 7 -19 -72 -3 -10 2 -21 -3 -23 -10 -3 -7 -16 -12 -30 -10
-13 1 -27 -2 -31 -8 -3 -6 -1 -7 5 -3 7 4 12 3 12 -2 0 -5 -21 -13 -47 -18
-53 -9 -75 -9 -113 1 -14 4 -45 8 -70 11 -59 5 -78 9 -86 17 -4 3 -19 0 -34
-8 -15 -8 -30 -11 -34 -8 -3 3 -43 1 -88 -6 -71 -10 -144 -19 -183 -22 -58 -4
-203 6 -214 15 -12 8 -13 8 -7 -2 12 -20 -45 -4 -64 18 -22 24 -55 40 -84 40
-14 0 -26 5 -26 10 0 14 -33 12 -49 -2 -11 -10 -14 -10 -18 -1 -3 10 -10 10
-25 2 -12 -6 -23 -7 -27 -2 -8 11 -27 11 -38 -1 -4 -5 -3 -6 4 -2 6 3 14 2 18
-4 3 -5 24 -14 45 -20 22 -6 50 -21 61 -33 12 -12 19 -16 15 -9 -4 6 -5 12 -2
12 2 0 11 -6 18 -12 17 -17 91 -52 102 -49 5 1 5 -6 2 -16 -6 -14 -5 -15 5 -6
10 10 20 8 48 -10 20 -12 37 -21 38 -20 8 7 155 -56 175 -74 12 -10 18 -12 18
-4 0 7 5 9 10 6 6 -4 8 -9 6 -13 -2 -4 7 -8 21 -9 14 0 28 -5 32 -10 11 -15
65 -48 119 -72 28 -14 52 -28 52 -33 0 -4 7 -8 15 -8 8 0 15 -4 15 -10 0 -5 3
-9 8 -8 16 6 91 -26 85 -35 -3 -6 -1 -7 5 -3 21 12 33 -3 21 -26 -8 -15 -8
-19 0 -14 6 4 11 0 12 -11 0 -15 2 -14 11 5 6 12 14 22 18 22 13 0 100 -94
100 -108 0 -7 5 -10 10 -7 6 3 10 2 10 -4 0 -6 13 -31 30 -57 39 -62 58 -124
64 -207 l5 -67 -52 30 c-29 17 -51 34 -50 38 1 4 -7 8 -17 8 -14 0 -16 -4 -9
-12 13 -16 127 -84 140 -84 6 0 8 14 5 33 -4 17 -8 59 -10 92 -4 60 -30 131
-70 190 l-20 30 20 -17 c23 -20 34 -23 34 -8 0 14 -49 60 -65 60 -8 0 -33 22
-57 50 -24 27 -49 50 -56 50 -7 0 -33 20 -58 45 -24 25 -49 45 -54 45 -4 0
-17 11 -28 25 -11 14 -25 25 -31 25 -5 0 -15 9 -21 20 -6 11 -20 20 -30 20
-11 0 -20 5 -20 10 0 6 -10 10 -22 10 -22 1 -22 1 -4 15 23 17 15 31 -11 19
-36 -16 -59 -11 -97 22 -22 19 -48 34 -58 34 -10 0 -18 7 -18 15 0 20 -10 19
-26 -2 -9 -12 -16 -14 -21 -8 -5 6 -19 12 -32 12 -14 1 -29 9 -33 18 -5 8 -19
15 -32 15 -13 0 -29 6 -35 14 -10 12 5 14 106 13 123 -1 268 8 284 18 20 13
169 12 259 -1 52 -8 110 -11 130 -7 19 4 41 6 48 4 8 -1 21 4 30 12 26 22 49
27 168 31 104 4 198 27 229 57 11 11 9 11 -40 -7z m-750 -382 c-3 -3 -11 0
-18 7 -9 10 -8 11 6 5 10 -3 15 -9 12 -12z"/>
<path d="M2585 2060 c3 -5 11 -10 16 -10 6 0 7 5 4 10 -3 6 -11 10 -16 10 -6
0 -7 -4 -4 -10z"/>
<path d="M1940 2051 c-8 -5 -32 -11 -52 -15 -43 -8 -57 -21 -23 -21 13 0 21 3
19 6 -2 4 14 9 36 13 22 3 40 11 40 16 0 12 -1 12 -20 1z"/>
<path d="M2227 2009 c4 -13 8 -18 11 -10 2 7 -1 18 -6 23 -8 8 -9 4 -5 -13z"/>
<path d="M1766 2001 c-4 -5 3 -7 14 -4 23 6 26 13 6 13 -8 0 -17 -4 -20 -9z"/>
<path d="M1655 1978 c-22 -6 -41 -12 -43 -13 -6 -5 11 -35 21 -35 7 0 7 4 -2
13 -10 10 -2 15 41 29 58 18 46 22 -17 6z"/>
<path d="M1570 1950 c0 -5 7 -7 15 -4 8 4 15 8 15 10 0 2 -7 4 -15 4 -8 0 -15
-4 -15 -10z"/>
<path d="M1513 1943 c-13 -2 -23 -8 -23 -13 0 -6 10 -6 24 0 13 5 26 6 29 4 3
-3 8 -1 12 5 6 11 -2 12 -42 4z"/>
<path d="M1450 1920 c0 -5 7 -7 15 -4 8 4 15 8 15 10 0 2 -7 4 -15 4 -8 0 -15
-4 -15 -10z"/>
<path d="M1410 1910 c0 -5 7 -7 15 -4 8 4 15 8 15 10 0 2 -7 4 -15 4 -8 0 -15
-4 -15 -10z"/>
<path d="M1165 1859 c-110 -27 -288 -70 -395 -96 -208 -50 -230 -60 -251 -122
-7 -19 -18 -31 -29 -31 -10 0 -20 -7 -23 -14 -3 -8 -22 -18 -42 -22 -20 -3
-48 -17 -62 -30 -13 -12 -31 -20 -38 -18 -7 3 -16 0 -21 -7 -4 -7 -3 -10 4 -5
5 3 12 1 14 -5 2 -7 18 1 37 17 19 16 39 29 45 30 6 1 22 7 36 14 71 32 100
55 104 83 4 31 42 50 154 78 142 36 609 149 639 155 12 2 32 8 45 13 52 21
-23 7 -217 -40z"/>
<path d="M2497 1895 c-4 -8 -3 -16 1 -19 4 -3 9 4 9 15 2 23 -3 25 -10 4z"/>
<path d="M2523 1881 c0 -11 5 -18 9 -15 4 3 5 11 1 19 -7 21 -12 19 -10 -4z"/>
<path d="M2595 1879 c-4 -5 -12 -6 -18 -3 -9 5 -9 4 0 -6 7 -7 10 -25 7 -39
-2 -14 -6 -55 -9 -91 -2 -36 -5 -69 -5 -75 -1 -5 1 -41 3 -79 4 -49 11 -76 26
-97 12 -16 19 -34 16 -39 -4 -6 -1 -9 7 -8 7 2 13 -4 13 -12 0 -9 -8 -14 -20
-12 -16 2 -17 1 -5 -7 8 -5 19 -7 25 -3 5 4 33 8 62 9 42 3 53 0 57 -14 7 -23
0 -138 -9 -153 -4 -6 -7 -27 -7 -46 0 -19 -4 -34 -8 -34 -5 0 -7 -8 -5 -17 1
-10 -2 -26 -7 -35 -5 -10 -5 -18 0 -18 8 0 9 -240 1 -270 -2 -8 -8 -18 -12
-21 -11 -8 -19 -56 -20 -121 0 -32 -4 -58 -9 -58 -5 0 -5 -7 0 -17 5 -9 6 -28
2 -43 -4 -15 -4 -34 1 -41 9 -15 10 -14 15 29 9 79 15 114 29 187 11 54 15
119 13 193 -2 62 0 112 4 112 8 0 8 6 8 108 0 40 6 76 17 100 21 44 23 143 2
168 -10 12 -23 14 -57 9 -43 -6 -46 -5 -83 36 -36 39 -39 49 -41 104 -4 164 7
285 26 285 10 0 103 -55 294 -173 7 -5 12 -4 12 2 0 6 -7 11 -15 11 -8 0 -15
3 -15 8 0 4 -23 20 -50 35 -30 17 -48 33 -44 39 4 7 2 8 -4 4 -10 -6 -49 10
-62 25 -16 19 -130 76 -135 68z"/>
<path d="M1887 1835 c-4 -8 -2 -17 3 -20 6 -4 10 3 10 14 0 25 -6 27 -13 6z"/>
<path d="M2453 1835 c0 -7 6 -12 13 -11 23 3 26 13 6 18 -11 3 -19 0 -19 -7z"/>
<path d="M2503 1845 c4 -5 -3 -19 -15 -32 -12 -12 -20 -25 -17 -27 2 -2 14 9
27 25 17 21 19 29 10 35 -7 4 -10 3 -5 -1z"/>
<path d="M1854 1824 c6 -15 4 -15 -10 -3 -16 13 -16 12 -1 -18 19 -35 24 -69
7 -43 -5 8 -10 11 -10 5 0 -5 -8 2 -17 15 -10 14 -17 29 -15 33 1 5 -2 5 -8 2
-8 -5 -7 -12 4 -23 8 -10 15 -21 16 -27 1 -5 10 -18 20 -27 17 -16 18 -16 26
10 14 50 13 92 -3 92 -10 0 -13 -6 -9 -16z"/>
<path d="M2877 1793 c-4 -3 -7 -13 -7 -21 0 -18 13 -7 16 13 2 17 1 18 -9 8z"/>
<path d="M1943 1715 c0 -8 4 -12 9 -9 5 3 6 10 3 15 -9 13 -12 11 -12 -6z"/>
<path d="M1063 1675 c0 -8 4 -12 9 -9 5 3 6 10 3 15 -9 13 -12 11 -12 -6z"/>
<path d="M1794 1668 c3 -15 26 -23 26 -8 0 6 -4 9 -9 6 -5 -4 -12 -1 -14 4 -3
6 -4 5 -3 -2z"/>
<path d="M2933 1674 c29 -26 117 -85 212 -142 66 -40 199 -121 295 -181 96
-60 177 -106 180 -103 3 2 -1 7 -8 9 -6 3 -10 9 -7 14 4 5 -2 6 -11 2 -14 -5
-16 -3 -11 12 6 15 5 16 -8 5 -10 -8 -15 -9 -15 -1 0 6 -7 11 -16 11 -8 0 -13
4 -10 8 3 5 0 9 -7 9 -21 0 -547 334 -542 344 4 5 -1 6 -9 3 -9 -3 -16 -2 -16
3 0 5 -7 10 -15 10 -8 0 -14 -1 -12 -3z"/>
<path d="M611 1663 c4 -22 -2 -34 -13 -27 -7 4 -3 -4 10 -18 12 -13 19 -28 15
-33 -5 -4 -2 -5 5 -1 10 6 10 11 1 22 -6 8 -9 23 -6 34 3 11 1 23 -4 26 -5 3
-9 2 -8 -3z"/>
<path d="M1865 1631 c-3 -6 -11 -9 -16 -6 -5 4 -9 1 -9 -4 0 -6 -3 -10 -7 -10
-21 3 -32 -2 -27 -14 5 -15 -32 -17 -56 -3 -12 7 -13 6 -2 -5 6 -7 12 -16 12
-19 0 -6 -73 -32 -95 -34 -5 -1 -12 -4 -16 -8 -3 -4 -18 -9 -35 -12 -16 -2
-45 -10 -64 -19 -50 -21 -76 -25 -72 -9 1 8 -2 11 -8 7 -5 -3 -10 -1 -10 4 0
6 4 11 9 11 5 0 7 9 4 20 -3 11 0 20 6 20 6 0 11 4 11 8 0 5 -7 9 -15 9 -8 0
-12 -3 -10 -7 2 -4 -2 -16 -10 -26 -14 -18 -14 -18 -10 4 2 12 0 22 -6 22 -5
0 -9 -5 -9 -11 0 -5 -4 -8 -10 -4 -5 3 -7 12 -3 20 3 8 0 15 -6 15 -6 0 -11
-5 -11 -11 0 -5 -5 -7 -12 -3 -7 4 -8 3 -4 -5 4 -6 2 -18 -4 -26 -8 -10 -9
-15 -2 -15 6 0 9 -9 7 -19 -2 -12 3 -21 16 -24 10 -3 19 -11 18 -19 0 -10 -2
-10 -6 0 -2 6 -9 12 -14 12 -5 0 -8 -6 -7 -12 2 -10 -18 -13 -74 -13 -42 0
-80 -3 -84 -8 -9 -9 -48 -9 -58 0 -12 12 -43 10 -43 -4 0 -16 9 -17 24 -2 7 7
13 7 17 1 6 -10 -23 -25 -40 -21 -5 2 -34 -5 -64 -15 -30 -10 -71 -20 -90 -23
-19 -3 -36 -9 -38 -14 -2 -5 -14 -9 -26 -9 -12 0 -27 -5 -33 -11 -14 -14 -83
-21 -83 -9 0 5 -8 7 -17 5 -10 -2 -18 -4 -18 -5 0 -8 -43 -6 -64 2 -70 29 -90
39 -94 51 -3 9 -8 9 -16 1 -14 -13 -61 -6 -61 8 0 6 -6 8 -14 5 -8 -3 -25 2
-38 12 -13 10 -39 21 -58 24 -69 11 -82 18 -68 36 10 13 10 14 -1 4 -11 -9
-20 -9 -43 3 -16 8 -26 20 -22 26 4 6 1 9 -6 6 -20 -6 -24 -28 -6 -28 9 0 16
-3 16 -8 0 -7 72 -43 96 -48 28 -5 62 -17 100 -35 23 -11 59 -21 81 -23 21 -2
59 -14 82 -27 55 -28 199 -37 240 -14 23 13 81 30 271 82 30 8 98 17 150 19
104 5 113 6 150 21 14 6 70 25 125 43 55 17 125 42 155 53 30 12 58 21 62 19
4 -1 12 7 18 18 6 11 19 20 29 20 11 0 22 7 25 16 8 20 1 30 -9 15z m-400
-151 c3 -5 4 -10 1 -10 -2 0 -11 -2 -19 -5 -8 -4 -14 0 -14 10 0 17 22 21 32
5z"/>
<path d="M1133 1536 c1 -11 9 -21 17 -23 10 -3 11 -2 4 4 -6 4 -14 15 -17 23
-5 11 -6 9 -4 -4z"/>
<path d="M1095 1530 c-3 -5 -3 -10 2 -10 4 0 2 -4 -5 -9 -11 -7 -10 -9 3 -14
10 -5 14 -3 9 4 -4 7 -1 10 7 7 8 -3 13 -11 11 -17 -1 -7 2 -10 8 -6 6 4 4 15
-6 31 -18 27 -20 28 -29 14z"/>
<path d="M3588 1495 c-10 -10 10 -45 25 -45 9 0 9 2 1 8 -7 4 -13 15 -15 25
-2 11 -7 16 -11 12z"/>
<path d="M3554 1448 c-4 -6 -3 -8 4 -4 6 3 13 2 16 -3 4 -5 2 -12 -4 -16 -15
-9 -2 -25 14 -19 17 6 10 40 -10 48 -7 3 -16 0 -20 -6z"/>
<path d="M2554 1443 c4 -7 3 -13 -2 -13 -6 0 -13 -7 -16 -16 -5 -13 -4 -14 7
-6 8 7 16 9 20 6 3 -3 4 1 3 10 -1 8 -6 19 -11 23 -4 4 -5 2 -1 -4z"/>
<path d="M545 1429 c-4 -6 -5 -12 -2 -15 2 -3 7 2 10 11 7 17 1 20 -8 4z"/>
<path d="M615 1430 c-3 -5 -1 -10 4 -10 6 0 11 5 11 10 0 6 -2 10 -4 10 -3 0
-8 -4 -11 -10z"/>
<path d="M1125 1360 c-8 -14 3 -30 21 -30 8 0 14 9 14 20 0 21 -24 28 -35 10z"/>
<path d="M3630 1242 c0 -4 10 -13 23 -21 22 -14 22 -14 3 8 -20 22 -26 25 -26
13z"/>
<path d="M3770 1110 c0 -5 7 -10 15 -10 8 0 15 5 15 10 0 6 -7 10 -15 10 -8 0
-15 -4 -15 -10z"/>
<path d="M2500 1070 c-9 -6 -10 -10 -3 -10 6 0 15 5 18 10 8 12 4 12 -15 0z"/>
<path d="M2533 1069 c1 -4 -6 -14 -16 -21 -18 -14 -18 -14 0 -28 13 -10 15
-10 6 -1 -9 11 -6 18 14 36 19 16 22 22 10 22 -9 0 -15 -4 -14 -8z"/>
<path d="M2560 1010 c-9 -6 -10 -10 -3 -10 6 0 15 5 18 10 8 12 4 12 -15 0z"/>
<path d="M2528 953 c7 -3 16 -2 19 1 4 3 -2 6 -13 5 -11 0 -14 -3 -6 -6z"/>
<path d="M2609 873 c-13 -16 -12 -17 4 -4 16 13 21 21 13 21 -2 0 -10 -8 -17
-17z"/>
<path d="M2680 480 c-1 -19 -1 -39 0 -45 8 -38 8 -45 -1 -50 -5 -4 -6 -12 -2
-18 10 -15 13 -77 4 -77 -4 0 -6 -18 -5 -40 0 -22 -2 -40 -6 -40 -4 0 -7 -26
-8 -57 l-1 -58 14 67 c7 36 18 75 23 85 11 22 6 196 -7 238 l-9 30 -2 -35z"/>
<path d="M2651 434 c0 -11 3 -14 6 -6 3 7 2 16 -1 19 -3 4 -6 -2 -5 -13z"/>
<path d="M2621 416 c-9 -11 -9 -16 1 -22 7 -4 10 -4 6 1 -4 4 -3 14 3 22 6 7
9 13 6 13 -2 0 -10 -6 -16 -14z"/>
<path d="M2656 393 c-6 -14 -5 -15 5 -6 7 7 10 15 7 18 -3 3 -9 -2 -12 -12z"/>
<path d="M2590 380 c0 -5 5 -10 11 -10 5 0 7 5 4 10 -3 6 -8 10 -11 10 -2 0
-4 -4 -4 -10z"/>
<path d="M2160 355 c0 -8 5 -15 10 -15 6 0 10 7 10 15 0 8 -4 15 -10 15 -5 0
-10 -7 -10 -15z"/>
<path d="M2643 355 c0 -8 4 -12 9 -9 5 3 6 10 3 15 -9 13 -12 11 -12 -6z"/>
</g>
</svg>
